<svg xmlns="http://www.w3.org/2000/svg" width="600" height="600" viewBox="0 0 600 600" role="img"><title>Explanatory pancreatic islet with distinct beta, alpha and delta cell populations</title><desc>Original simplified explanatory editorial illustration; not experimental imagery or measured clinical data. Editable independent groups. Transparent canvas.</desc><defs><pattern id="fine-hatch" width="9" height="9" patternUnits="userSpaceOnUse" patternTransform="rotate(22)"><path d="M0 0V9" stroke="#172B46" stroke-width=".6" opacity=".18"/></pattern></defs><g stroke="#172B46" stroke-width="2.5" stroke-linecap="round" stroke-linejoin="round"><g id="islet-boundary"><path d="M195 272C191 196 237 153 303 151C373 138 422 190 440 259C462 323 423 394 355 421C277 447 215 411 197 344Z" fill="#FAF9F5" stroke-dasharray="3 6"/></g><g id="beta-cell-0"><path d="M229 239C224 205 278 196 297 229C306 256 271 280 248 273C229 266 221 249 229 239Z" fill="#D97335"/><ellipse cx="259" cy="242" rx="9" ry="11" fill="#172B46" stroke="none"/><path d="M244 227q9 -10 19 -8" fill="none" stroke="#FAF9F5" stroke-width="2"/></g><g id="beta-cell-1"><path d="M276 213C271 182 322 173 338 203C347 230 315 251 292 244C276 237 268 223 276 213Z" fill="#D97335"/><ellipse cx="303" cy="216" rx="9" ry="11" fill="#172B46" stroke="none"/><path d="M288 201q9 -10 19 -8" fill="none" stroke="#FAF9F5" stroke-width="2"/></g><g id="beta-cell-2"><path d="M316 240C311 204 367 195 388 230C397 257 360 283 337 276C316 269 308 250 316 240Z" fill="#D97335"/><ellipse cx="348" cy="243" rx="9" ry="11" fill="#172B46" stroke="none"/><path d="M333 228q9 -10 19 -8" fill="none" stroke="#FAF9F5" stroke-width="2"/></g><g id="beta-cell-3"><path d="M346 280C341 246 395 237 414 270C423 297 388 321 365 314C346 307 338 290 346 280Z" fill="#D97335"/><ellipse cx="376" cy="283" rx="9" ry="11" fill="#172B46" stroke="none"/><path d="M361 268q9 -10 19 -8" fill="none" stroke="#FAF9F5" stroke-width="2"/></g><g id="beta-cell-4"><path d="M318 324C313 287 370 278 392 314C401 341 363 368 340 361C318 354 310 334 318 324Z" fill="#D97335"/><ellipse cx="351" cy="327" rx="9" ry="11" fill="#172B46" stroke="none"/><path d="M336 312q9 -10 19 -8" fill="none" stroke="#FAF9F5" stroke-width="2"/></g><g id="beta-cell-5"><path d="M273 347C268 312 323 303 343 337C352 364 316 389 293 382C273 375 265 357 273 347Z" fill="#D97335"/><ellipse cx="304" cy="350" rx="9" ry="11" fill="#172B46" stroke="none"/><path d="M289 335q9 -10 19 -8" fill="none" stroke="#FAF9F5" stroke-width="2"/></g><g id="beta-cell-6"><path d="M228 318C223 283 278 274 298 308C307 335 271 360 248 353C228 346 220 328 228 318Z" fill="#D97335"/><ellipse cx="259" cy="321" rx="9" ry="11" fill="#172B46" stroke="none"/><path d="M244 306q9 -10 19 -8" fill="none" stroke="#FAF9F5" stroke-width="2"/></g><g id="beta-cell-7"><path d="M209 277C204 246 255 237 271 267C280 294 248 315 225 308C209 301 201 287 209 277Z" fill="#D97335"/><ellipse cx="236" cy="280" rx="9" ry="11" fill="#172B46" stroke="none"/><path d="M221 265q9 -10 19 -8" fill="none" stroke="#FAF9F5" stroke-width="2"/></g><g id="beta-cell-8"><path d="M270 278C265 241 322 232 344 268C353 295 315 322 292 315C270 308 262 288 270 278Z" fill="#D97335"/><ellipse cx="303" cy="281" rx="9" ry="11" fill="#172B46" stroke="none"/><path d="M288 266q9 -10 19 -8" fill="none" stroke="#FAF9F5" stroke-width="2"/></g><g id="alpha-cell-0"><ellipse cx="252" cy="191" rx="25" ry="23" fill="#8BAFBB"/><ellipse cx="249" cy="193" rx="7" ry="8" fill="#172B46" stroke="none"/></g><g id="alpha-cell-1"><ellipse cx="392" cy="227" rx="25" ry="23" fill="#8BAFBB"/><ellipse cx="389" cy="229" rx="7" ry="8" fill="#172B46" stroke="none"/></g><g id="alpha-cell-2"><ellipse cx="401" cy="335" rx="25" ry="23" fill="#8BAFBB"/><ellipse cx="398" cy="337" rx="7" ry="8" fill="#172B46" stroke="none"/></g><g id="alpha-cell-3"><ellipse cx="268" cy="374" rx="25" ry="23" fill="#8BAFBB"/><ellipse cx="265" cy="376" rx="7" ry="8" fill="#172B46" stroke="none"/></g><g id="delta-cell-0"><ellipse cx="221" cy="321" rx="16" ry="20" fill="#F3F0E8"/><ellipse cx="221" cy="321" rx="5" ry="7" fill="#172B46" stroke="none"/></g><g id="delta-cell-1"><ellipse cx="357" cy="185" rx="16" ry="20" fill="#F3F0E8"/><ellipse cx="357" cy="185" rx="5" ry="7" fill="#172B46" stroke="none"/></g><g id="delta-cell-2"><ellipse cx="331" cy="389" rx="16" ry="20" fill="#F3F0E8"/><ellipse cx="331" cy="389" rx="5" ry="7" fill="#172B46" stroke="none"/></g><g id="capillary"><path d="M223 176C192 222 220 268 263 275C310 288 327 291 332 330C338 381 382 405 430 381" fill="none" stroke="#172B46" stroke-width="11"/><path d="M223 176C192 222 220 268 263 275C310 288 327 291 332 330C338 381 382 405 430 381" fill="none" stroke="#FAF9F5" stroke-width="6"/></g><g id="annotation-leaders" stroke-width="1.5"><path d="M379 280H490V251M243 277H126V309M357 185V104H406" fill="none"/></g></g></svg>