<svg xmlns="http://www.w3.org/2000/svg" width="700" height="800" viewBox="0 0 700 800"><rect x="0" y="0" width="700" height="800" rx="0" fill="#f4e9d9" stroke="none" stroke-width="5" /><g transform="translate(350 140) scale(1.25) rotate(0)"><ellipse cx="0" cy="491" rx="116" ry="15" fill="#d9cabc" stroke="none" stroke-width="5" /><g id="lead-rear"><g id="lead-rear-body"><g id="lead-rear-legs"><path d="M-65 308 L-68 470 L-30 470 L-10 329 L29 470 L67 470 L62 308 Z" fill="#42465d" stroke="#302b40" stroke-width="5" stroke-linejoin="round" stroke-linecap="round" /><path d="M-67 460 Q-91 460 -95 478 Q-91 492 -28 484 L-29 462 Z" fill="#302b40" stroke="#302b40" stroke-width="5" stroke-linejoin="round" stroke-linecap="round" /><path d="M30 461 L32 484 Q91 492 102 475 Q99 460 64 461 Z" fill="#302b40" stroke="#302b40" stroke-width="5" stroke-linejoin="round" stroke-linecap="round" /><path d="M-71 476 L-43 478 M46 477 L73 477" fill="none" stroke="#f4e9d9" stroke-width="3" stroke-linejoin="round" stroke-linecap="round" /></g><g id="lead-rear-torso"><path d="M-35 143 Q-81 145 -88 185 L-77 312 Q-13 340 77 310 L87 187 Q74 149 32 141 Z" fill="#488f8c" stroke="#302b40" stroke-width="5" stroke-linejoin="round" stroke-linecap="round" /><path d="M-17 149 Q0 174 22 149" fill="none" stroke="#286a67" stroke-width="5" stroke-linejoin="round" stroke-linecap="round" /><path d="M-61 244 Q-43 249 -39 275 M57 235 L55 288" fill="none" stroke="#286a67" stroke-width="3" stroke-linejoin="round" stroke-linecap="round" /></g><g transform="translate(-72 178) scale(1) rotate(0)"><g id="lead-rear-la"><path d="M-19 -4 Q-31 36 -19 91 L18 93 Q25 51 20 0 Z" fill="#488f8c" stroke="#302b40" stroke-width="5" stroke-linejoin="round" stroke-linecap="round" /><g id="lead-rear-la-forearm" transform="translate(0 86)"><path d="M-12 0 L-11 79 Q-4 89 14 79 L14 0 Z" fill="#e8ad82" stroke="#302b40" stroke-width="4" stroke-linejoin="round" stroke-linecap="round" /><g id="lead-rear-la-hand"><g transform="translate(0 94) scale(0.9) rotate(0)"><path d="M-14 0 Q-22 -6 -20 -16 Q-17 -21 -11 -14 L-10 -29 Q-6 -38 -1 -29 L2 -13 L6 -34 Q13 -39 14 -31 L14 -11 L19 -28 Q27 -30 25 -20 L22 -4 Q34 -13 36 -6 Q34 5 18 14 Q-2 22 -14 0 Z" fill="#e8ad82" stroke="#302b40" stroke-width="4" stroke-linejoin="round" stroke-linecap="round" /></g></g></g></g></g><g transform="translate(72 178) scale(1) rotate(0)"><g id="lead-rear-ra"><path d="M-19 -4 Q-31 36 -19 91 L18 93 Q25 51 20 0 Z" fill="#488f8c" stroke="#302b40" stroke-width="5" stroke-linejoin="round" stroke-linecap="round" /><g id="lead-rear-ra-forearm" transform="translate(0 86)"><path d="M-12 0 L-11 79 Q-4 89 14 79 L14 0 Z" fill="#e8ad82" stroke="#302b40" stroke-width="4" stroke-linejoin="round" stroke-linecap="round" /><g id="lead-rear-ra-hand"><g transform="translate(0 94) scale(0.9) rotate(0)"><path d="M-14 0 Q-22 -6 -20 -16 Q-17 -21 -11 -14 L-10 -29 Q-6 -38 -1 -29 L2 -13 L6 -34 Q13 -39 14 -31 L14 -11 L19 -28 Q27 -30 25 -20 L22 -4 Q34 -13 36 -6 Q34 5 18 14 Q-2 22 -14 0 Z" fill="#e8ad82" stroke="#302b40" stroke-width="4" stroke-linejoin="round" stroke-linecap="round" /></g></g></g></g></g></g><g id="lead-rear-head"><path d="M-20 117 L-20 151 Q0 162 24 150 L22 114" fill="#e8ad82" stroke="#302b40" stroke-width="5" stroke-linejoin="round" stroke-linecap="round" /><ellipse cx="-65" cy="79" rx="13" ry="20" fill="#e8ad82" stroke="#302b40" stroke-width="4" /><ellipse cx="65" cy="79" rx="13" ry="20" fill="#e8ad82" stroke="#302b40" stroke-width="4" /><path d="M-57 36 Q-62 6 -9 -9 Q52 -13 61 30 L60 104 Q16 146 -39 117 Q-65 105 -57 36 Z" fill="#302b40" stroke="#302b40" stroke-width="5" stroke-linejoin="round" stroke-linecap="round" /><path d="M-57 51 Q-72 27 -69 4 L-52 9 Q-64 -30 -38 -18 L-23 -10 Q-29 -41 -8 -26 L14 -14 Q40 -35 53 -15 L47 -1 Q82 1 61 36 Z" fill="#302b40" stroke="#302b40" stroke-width="5" stroke-linejoin="round" stroke-linecap="round" /><path d="M-43 111 Q3 133 44 109" fill="none" stroke="#5f5267" stroke-width="3" stroke-linejoin="round" stroke-linecap="round" /></g></g></g></svg>